<?xml version="1.0" encoding="UTF-8"?>
<!DOCTYPE svg PUBLIC "-//W3C//DTD SVG 1.1//EN" "http://www.w3.org/Graphics/SVG/1.1/DTD/svg11.dtd">
<!-- Creator: CorelDRAW 2021 (64-Bit) -->
<svg xmlns="http://www.w3.org/2000/svg" xml:space="preserve" width="0.423087in" height="0.470496in" version="1.1" style="shape-rendering:geometricPrecision; text-rendering:geometricPrecision; image-rendering:optimizeQuality; fill-rule:evenodd; clip-rule:evenodd"
viewBox="0 0 13.77 15.31"
 xmlns:xlink="http://www.w3.org/1999/xlink"
 xmlns:xodm="http://www.corel.com/coreldraw/odm/2003">
 <defs>
  <style type="text/css">
   <![CDATA[
    .fil0 {fill:yellow;fill-rule:nonzero}
   ]]>
  </style>
 </defs>
 <g id="Layer_x0020_1">
  <metadata id="CorelCorpID_0Corel-Layer"/>
  <path class="fil0" d="M7.22 14.63c-0.02,-0.22 -0.04,-0.46 -0.06,-0.71 -0.03,-0.53 -0.05,-1.1 -0.05,-1.64 0,-0.55 0.1,-1.12 0.42,-1.73 0.31,-0.61 0.82,-1.26 1.64,-2l0.02 -0.02c0.7,-0.48 1.15,-1.01 1.45,-1.53 0.41,-0.71 0.51,-1.38 0.51,-1.86 0,-0.97 -0.37,-1.82 -1.06,-2.41 -0.67,-0.57 -1.63,-0.91 -2.84,-0.91 -1.25,0 -2.39,0.59 -3.22,1.59 -0.81,0.98 -1.32,2.34 -1.32,3.92 0,0.57 0.06,1.13 0.19,1.68 -0.1,-0.06 -0.21,-0.12 -0.3,-0.18 -0.08,-0.05 -0.15,-0.1 -0.21,-0.16 -0.08,-0.44 -0.11,-0.88 -0.11,-1.33 0,-1.68 0.55,-3.15 1.42,-4.2 0.91,-1.1 2.17,-1.75 3.55,-1.75 1.32,0 2.38,0.38 3.12,1.02 0.79,0.68 1.21,1.64 1.21,2.74 0,0.53 -0.11,1.29 -0.57,2.08 -0.32,0.56 -0.82,1.14 -1.57,1.66 -0.77,0.7 -1.25,1.31 -1.53,1.86 -0.28,0.55 -0.37,1.05 -0.37,1.54 0,0.54 0.01,1.11 0.05,1.62 0.03,0.45 0.07,0.85 0.12,1.15 0.01,0.06 0,0.12 -0.03,0.17 -0.07,0.1 -0.2,0.12 -0.3,0.06 -1.84,-1.26 -3.12,-2.54 -3.93,-3.85 -0.23,-0.37 -0.43,-0.75 -0.59,-1.12 0.18,0.07 0.37,0.13 0.56,0.18 0.12,0.24 0.25,0.48 0.4,0.72 0.72,1.16 1.83,2.3 3.4,3.43zm5.46 -11.4l0.02 0c0.41,0 0.86,0.23 0.89,0.34 0.12,0.48 0.18,0.96 0.18,1.45 0,0 0,0 0,0 0,0.02 0,0.02 0,0.02 0,0 0,0 0,0 0,0 0,0 0,0 0,0.49 -0.11,0.96 -0.27,1.42 -0.03,0.11 -0.49,0.34 -0.86,0.34 -0.22,0 -0.48,0 -0.79,0 -0.09,0.01 -0.16,-0.1 -0.13,-0.17 0.26,-0.49 0.46,-1.03 0.46,-1.58 0,-0.02 0,-0.02 0,-0.02 0,-0.56 -0.11,-1.14 -0.34,-1.66 -0.03,-0.1 0.05,-0.13 0.12,-0.13l0.26 0c-0.3,-0.74 -0.86,-1.38 -1.57,-1.86 -0.88,-0.59 -1.97,-0.93 -3.09,-0.93 -1.13,0 -2.17,0.29 -3.06,0.8 -0.87,0.5 -1.59,1.21 -2.1,2.06l0.23 0c0.08,0 0.22,0.13 0.12,0.25 -0.05,0.09 -0.08,0.11 -0.12,0.19 -0.21,0.37 -0.38,0.75 -0.52,1.15 -0.14,0.41 -0.25,0.83 -0.32,1.27 -0.03,0.18 -0.05,0.37 -0.08,0.56 -0.01,0.1 -0.07,0.14 -0.14,0.15l-0.13 0c0,0.01 0,0.03 0,0.04 0,0.27 0,0.27 0,0.27 0,0.1 -0.07,0.17 -0.15,0.19l-0 0.03c0.01,0.23 0.04,0.46 0.13,0.66 0.11,0.29 0.27,0.55 0.49,0.78 0.13,0.13 0.27,0.26 0.42,0.36 0.18,0.13 0.39,0.24 0.6,0.32 0.24,0.11 0.5,0.2 0.76,0.25 0.25,0.07 0.49,0.11 0.74,0.14 0.01,-0.02 0.03,-0.04 0.04,-0.05 0.07,-0.04 0.13,-0.06 0.21,-0.06 0.26,0.03 0.51,0.04 0.77,0.04 0.08,0 0.15,0.03 0.2,0.08 0.05,0.05 0.09,0.13 0.09,0.21 0,0.07 -0.03,0.14 -0.09,0.2 -0.05,0.04 -0.12,0.08 -0.2,0.08 -0.27,0 -0.55,-0.01 -0.82,-0.04 -0.08,-0.01 -0.14,-0.04 -0.18,-0.1 -0.02,-0.02 -0.03,-0.04 -0.04,-0.07 -0.26,-0.03 -0.51,-0.08 -0.77,-0.14 -0.27,-0.06 -0.54,-0.15 -0.81,-0.26 -0.22,-0.1 -0.43,-0.22 -0.63,-0.36 -0.17,-0.11 -0.34,-0.25 -0.48,-0.4 -0.24,-0.25 -0.42,-0.54 -0.54,-0.87 -0.09,-0.24 -0.14,-0.5 -0.14,-0.76l0 -0.03c-0.08,-0.02 -0.14,-0.1 -0.14,-0.19 0,-0.27 0,-0.27 0,-0.27 0,-0.02 0,-0.03 0,-0.04 -0.43,-0.01 -0.98,-0.14 -0.86,-0.52 0.02,-0.14 0.04,-0.28 0.06,-0.42 0.09,-0.5 0.21,-1 0.38,-1.47 0.09,-0.25 0.18,-0.49 0.29,-0.73 0.13,-0.41 0.68,-0.43 1.16,-0.43 0,-0.02 0.01,-0.04 0.02,-0.06 0.56,-0.99 1.37,-1.81 2.35,-2.37 0.95,-0.55 2.06,-0.86 3.27,-0.86 1.2,0 2.38,0.37 3.33,1.01 0.83,0.56 1.48,1.32 1.79,2.22z"/>
 </g>
</svg>
