<?xml version="1.0" encoding="utf-8"?>
<!-- Generator: Adobe Illustrator 16.0.0, SVG Export Plug-In . SVG Version: 6.00 Build 0)  -->
<!DOCTYPE svg PUBLIC "-//W3C//DTD SVG 1.1//EN" "http://www.w3.org/Graphics/SVG/1.1/DTD/svg11.dtd">
<svg version="1.1" id="Layer_1" xmlns="http://www.w3.org/2000/svg" xmlns:xlink="http://www.w3.org/1999/xlink" x="0px" y="0px"
	 width="211.011px" height="211.011px" viewBox="0 0 211.011 211.011" enable-background="new 0 0 211.011 211.011"
	 xml:space="preserve">
<g>
	<path fill-rule="evenodd" clip-rule="evenodd" fill="#FFFFFF" d="M125.392,97.42c-0.397-0.872-1.004-1.638-1.744-2.325
		c-0.766-0.66-1.771-1.136-2.985-1.4c-1.585-0.317-3.039-0.158-4.36,0.476c-1.321,0.608-2.43,1.48-3.408,2.589
		c-0.951,1.11-1.717,2.378-2.245,3.778c-0.555,1.4-0.819,2.748-0.819,4.042c0,1.189,0.211,2.352,0.634,3.435
		c0.422,1.083,1.004,2.113,1.743,3.064c0.714,0.978,1.585,1.876,2.563,2.722c0.951,0.819,2.008,1.612,3.091,2.325
		c1.453-0.66,2.722-1.479,3.805-2.483c1.057-1.004,1.955-2.113,2.669-3.303c0.686-1.163,1.215-2.404,1.558-3.698
		c0.343-1.295,0.502-2.537,0.502-3.726c0-0.872-0.079-1.797-0.186-2.748C126.078,99.217,125.814,98.292,125.392,97.42z"/>
	<path fill-rule="evenodd" clip-rule="evenodd" fill="#FFFFFF" d="M69.459,110.445c-0.185-2.563-1.136-4.782-2.589-6.737
		c-1.506-2.061-3.197-3.091-5.02-3.091c-1.479,0-3.091,1.611-4.887,4.809c-0.555,1.03-1.242,2.483-2.167,4.307l-0.502,1.004
		l-0.476,1.057c-0.343,0.766-0.634,1.4-0.898,1.876c4.28,2.854,7.794,4.596,10.621,5.099c2.246,0.422,3.884-0.079,4.888-1.48
		c0.792-1.109,1.162-2.747,1.109-4.86c0-0.555,0-1.058-0.053-1.559L69.459,110.445z"/>
	<path fill-rule="evenodd" clip-rule="evenodd" fill="#FFFFFF" d="M143.78,104.052c-1.031-1.215-2.272-2.352-3.805-3.514
		c-1.532-1.163-3.276-2.193-5.337-3.144c0.317,1.11,0.502,2.114,0.529,3.091c0.026,0.978,0.053,1.902,0.053,2.748
		c0,1.215-0.186,2.51-0.529,3.91c-0.343,1.401-0.819,2.827-1.426,4.253c-0.634,1.401-1.374,2.801-2.272,4.175
		c-0.898,1.374-1.876,2.641-2.959,3.777c0.925,0.133,1.691,0.238,2.299,0.265c0.581,0.026,1.136,0.026,1.664,0.026h2.034
		c2.194,0,4.096-0.211,5.707-0.687c1.612-0.475,2.959-1.11,4.016-1.929c1.03-0.793,1.823-1.744,2.325-2.801
		c0.502-1.083,0.766-2.219,0.766-3.381c0-1.004-0.264-2.087-0.766-3.25C145.577,106.403,144.784,105.241,143.78,104.052z"/>
	<path fill-rule="evenodd" clip-rule="evenodd" fill="#FFFFFF" d="M105.505,0C47.395,0,0,47.395,0,105.505
		c0,58.11,47.395,105.505,105.505,105.505c58.11,0,105.505-47.396,105.505-105.505C211.011,47.395,163.615,0,105.505,0z
		 M159.025,64.527c0-2.352,1.929-4.28,4.28-4.28c2.061,0,3.778,1.479,4.174,3.408c1.004,10.04,1.585,19.128,1.77,27.24
		c0.264,13.236,0.132,24.28-0.422,33.131c-0.265,1.902-1.823,3.409-3.752,3.62l-1.4-0.079c-1.822-0.397-3.197-1.955-3.329-3.857
		c0.714-11.149,0.925-20.635,0.635-28.429c-0.502-11.942-1.163-22.114-1.929-30.463l-0.026-0.026
		C159.025,64.711,159.025,64.632,159.025,64.527z M85.153,75.121l1.876-1.902c1.744-1.744,4.571-1.744,6.314,0l1.902,1.875
		c1.744,1.744,1.744,4.571,0,6.315l-1.876,1.902c-1.743,1.744-4.57,1.744-6.314,0.026l-1.902-1.902
		C83.409,79.692,83.409,76.865,85.153,75.121z M145.894,125.321l0.053-0.026c-0.792,0.475-1.743,0.871-2.826,1.215
		c-1.084,0.316-2.22,0.581-3.409,0.792c-1.215,0.185-2.404,0.343-3.593,0.449c-1.215,0.105-2.298,0.159-3.303,0.159
		c-2.536,0-4.967-0.185-7.344-0.555c-2.352-0.37-4.756-1.057-7.187-2.034c-1.505,0.449-3.223,0.845-5.125,1.163
		c-4.016,0.66-8.692,1.505-12.946,0.607c-1.189-0.264-2.246-0.633-3.223-1.11c-0.951-0.475-1.823-1.03-2.563-1.69
		c-0.766-0.661-1.453-1.401-2.061-2.141c-5.336,5.232-13.659,7.821-18.917,1.057c-2.378,3.145-5.363,4.465-8.93,3.989
		c-5.681-0.766-11.255-2.985-16.619-6.71c-0.74,1.188-1.956,2.325-3.62,3.487c-6.209,4.387-10.489,4.571-16.143-1.083
		c-0.951-0.925-1.691-1.955-2.193-3.038c-0.476-1.083-0.872-2.167-1.109-3.223c-0.238-1.057-0.396-2.061-0.423-3.012
		c-0.026-0.978-0.026-1.796-0.026-2.484v-0.819c0-0.027,0-0.555,0.026-1.559c0.026-1.03,0.053-2.405,0.079-4.122
		c0-1.744,0.026-3.725,0.026-5.998s-0.026-4.65-0.053-7.16c0-2.484-0.026-5.047-0.079-7.715c-0.053-2.642-0.159-5.231-0.265-7.715
		c-0.105-2.51-0.264-4.808-0.476-6.896c-0.053-0.634-0.132-1.242-0.185-1.796c0-2.827,1.638-4.069,3.989-4.307
		c2.325-0.212,4.439,1.823,4.544,4.095h0.026l0.053,0.661c0.212,2.087,0.37,4.412,0.502,6.922c0.105,2.484,0.212,5.073,0.265,7.768
		c0.079,2.722,0.079,5.363,0.105,7.926c0,2.537,0.026,4.94,0.026,7.266s0,4.386,0,6.183c0,1.796,0,3.302-0.026,4.464
		c0,1.19,0,1.902,0,2.114v0.766c0,1.269,0,2.378,0.132,3.33c0.396,3.355,2.378,3.99,4.915,4.122c0.053,0,0.132-0.026,0.211-0.026
		c4.624,0,6.447-7.16,8.402-11.017c0.317-0.635,0.713-1.427,1.162-2.378l0.264-0.555l0.264-0.502
		c0.159-0.343,0.291-0.661,0.423-0.925l1.03-1.955c0.37-0.766,0.767-1.4,1.11-1.982c0.846-1.453,1.744-2.642,2.616-3.566
		c2.272-2.404,5.046-3.593,8.375-3.593c3.91,0,7.266,1.585,10.093,4.809c3.62,4.095,4.861,9.987,5.152,15.457
		c0.582,10.383,11.414,8.797,11.414-3.699c0-0.793-0.026-1.612-0.079-2.431c-0.053-0.792-0.158-1.664-0.291-2.536
		c-0.343-2.721-1.479-5.417,2.246-6.816l0.661-0.185c0.264-0.053,0.555-0.079,0.819-0.079c3.197,0,3.937,2.272,4.307,4.835
		c0.185,1.03,0.317,2.14,0.423,3.355c0.105,1.189,0.238,2.536,0.344,4.069c0.079,1.057,0.237,2.192,0.422,3.355
		c0.211,1.163,0.555,2.246,1.083,3.25c0.502,1.004,1.215,1.85,2.114,2.51c2.351,1.717,4.835,0.978,7.424,0.608
		c-2.14-2.326-3.752-4.624-4.835-6.843c-1.083-2.272-1.611-4.413-1.611-6.5c0-1.453,0.185-2.959,0.581-4.545
		c0.37-1.585,0.978-3.117,1.797-4.597c0.818-1.479,1.849-2.854,3.064-4.122c1.242-1.295,2.722-2.325,4.438-3.171l-1.268-0.502
		c-1.189-0.528-1.294-2.483-0.554-3.751l1.057-1.981c0.712-1.453,2.113-2.431,4.016-1.771l12.391,5.099
		c2.695,1.11,5.232,2.352,7.715,3.514c2.458,1.189,4.756,2.352,6.869,3.541c2.087,1.163,3.937,2.351,5.549,3.541
		c1.611,1.215,2.88,2.404,3.751,3.619c2.642,3.62,3.964,7.346,3.964,11.149c0,2.827-0.767,5.443-2.247,7.899
		C151.178,121.701,148.905,123.709,145.894,125.321z M187.982,120.512c-0.026,0.422-0.079,0.846-0.132,1.321
		c-0.369,2.484-1.083,4.835-2.166,7.028c-1.057,2.219-2.405,4.307-4.016,6.262c-1.585,1.928-3.435,3.751-5.496,5.442
		c-2.034,1.691-4.253,3.25-6.579,4.65c-2.325,1.4-4.781,2.694-7.292,3.805c-1.294,0.581-2.563,1.109-3.858,1.611
		c-0.528,0.132-1.083,0.159-1.665,0.08c-2.325-0.343-3.937-2.51-3.593-4.835c0.211-1.426,1.11-2.588,2.325-3.17
		c2.008-0.793,4.016-1.664,5.998-2.642c3.091-1.506,5.892-3.277,8.455-5.232c2.536-1.981,4.649-4.148,6.367-6.525
		c1.718-2.378,2.748-4.94,3.17-7.688c0.027-0.132,0.053-0.397,0.08-0.713c0-0.343,0.026-0.635,0.053-0.978v0.053
		c0.026-0.898,0.026-1.876,0-2.933c-0.053-1.083-0.133-2.167-0.212-3.302c-0.105-1.11-0.211-2.246-0.343-3.382
		c-0.105-1.11-0.237-2.219-0.37-3.276c-0.158-1.163-0.317-2.325-0.502-3.488c-0.026-0.343-0.026-0.713,0.026-1.083
		c0.264-1.823,1.665-3.197,3.356-3.541l-3.989,0.634l8.454-1.348l-4.122,0.661c0.37-0.053,0.74-0.053,1.136,0
		c1.823,0.291,3.223,1.691,3.541,3.408c0.185,1.374,0.37,2.721,0.528,4.069c0.132,1.163,0.264,2.352,0.397,3.593
		c0.132,1.241,0.237,2.458,0.316,3.699c0.106,1.215,0.159,2.431,0.211,3.566c0.026,1.137,0.026,2.22,0,3.198
		C188.035,119.772,188.008,120.115,187.982,120.512z"/>
</g>
</svg>
