<?xml version="1.0" encoding="UTF-8"?>
<!DOCTYPE svg PUBLIC "-//W3C//DTD SVG 1.1//EN" "http://www.w3.org/Graphics/SVG/1.1/DTD/svg11.dtd">
<!-- Creator: CorelDRAW X8 -->
<svg xmlns="http://www.w3.org/2000/svg" xml:space="preserve" width="0.5in" height="0.5in" version="1.1" style="shape-rendering:geometricPrecision; text-rendering:geometricPrecision; image-rendering:optimizeQuality; fill-rule:evenodd; clip-rule:evenodd"
viewBox="0 0 32 32"
 xmlns:xlink="http://www.w3.org/1999/xlink">
 <defs>
  <style type="text/css">
   <![CDATA[
    .fil22 {fill:#E6E7E8}
    .fil21 {fill:#ED1C24}
    .fil20 {fill:white}
   ]]>
  </style>
 </defs>
 <g id="Layer_x0020_1">
  <metadata id="CorelCorpID_0Corel-Layer"/>
  <g id="_2225809920720">
   <circle class="fil20" cx="16" cy="16" r="15"/>
   <path class="fil21" d="M16 3c7,0 13,6 13,13 0,7 -6,13 -13,13 -7,0 -13,-6 -13,-13 0,-7 6,-13 13,-13l0 0zm5 19l1 -1 -5 -5 5 -5 -1 -1 -5 5 -5 -5 -1 1 5 5 -5 5 1 1 5 -5 5 5z"/>
   <path class="fil22" d="M16 0c4,0 8,2 11,5 3,3 5,7 5,11 0,4 -2,8 -5,11 -3,3 -7,5 -11,5 -4,0 -8,-2 -11,-5 -3,-3 -5,-7 -5,-11 0,-4 2,-8 5,-11 3,-3 7,-5 11,-5l0 0zm11 5c-3,-2 -7,-4 -11,-4 -4,0 -8,2 -11,4 -2,3 -4,7 -4,11 0,4 2,8 4,11 3,2 7,4 11,4 4,0 8,-2 11,-4 2,-3 4,-7 4,-11 0,-4 -2,-8 -4,-11z"/>
  </g>
 </g>
</svg>
