<?xml version="1.0" encoding="UTF-8"?>
<!DOCTYPE svg PUBLIC "-//W3C//DTD SVG 1.1//EN" "http://www.w3.org/Graphics/SVG/1.1/DTD/svg11.dtd">
<!-- Creator: CorelDRAW X8 -->
<svg xmlns="http://www.w3.org/2000/svg" xml:space="preserve" width="4.15362in" height="1.2222in" version="1.1" style="shape-rendering:geometricPrecision; text-rendering:geometricPrecision; image-rendering:optimizeQuality; fill-rule:evenodd; clip-rule:evenodd"
viewBox="0 0 6756 1988"
 xmlns:xlink="http://www.w3.org/1999/xlink">
 <defs>
  <style type="text/css">
   <![CDATA[
    .fil0 {fill:white;fill-rule:nonzero}
   ]]>
  </style>
 </defs>
 <g id="Layer_x0020_1">
  <metadata id="CorelCorpID_0Corel-Layer"/>
  <path class="fil0" d="M5957 1188l0 -678 -78 25 0 671c0,85 -19,154 -57,207 -42,63 -103,95 -184,95 -65,0 -125,-14 -181,-40l33 76c45,21 94,31 148,31 96,0 172,-30 226,-89 53,-55 82,-132 90,-229l50 0 6 0 13 0 0 0c40,-3 80,-12 118,-28 53,-25 88,-59 102,-104 48,88 126,132 234,132 186,0 279,-118 279,-354 0,-238 -93,-357 -279,-357 -186,0 -278,119 -278,357l1 66c0,146 -69,219 -206,219l-37 0zm-90 -1170c-36,32 -65,48 -89,48 -21,0 -50,-11 -89,-33 -38,-22 -71,-33 -99,-33 -39,0 -82,23 -130,69l43 40c33,-32 62,-48 87,-48 21,0 51,12 89,35 39,22 72,33 99,33 40,0 84,-23 130,-69l-41 -42zm-152 175l-78 24 0 1040 78 0 0 -1064zm-240 317l-77 25 0 434c0,146 -67,219 -203,219l-314 0c-136,0 -204,-73 -204,-219l0 -310 -78 96 0 227c0,183 87,275 260,275l345 0c180,0 271,-92 271,-275l0 -472zm-1903 678l-8 0c-76,0 -114,-41 -114,-124l0 -874 -77 27 0 849c0,127 58,191 176,191l173 0 0 0 626 0 3 -166c0,-179 -39,-309 -117,-388 -74,-72 -172,-109 -295,-109 -53,0 -107,8 -162,25l378 -426 -99 0 -480 535 55 54c80,-77 183,-115 308,-115 97,0 173,28 229,83 49,50 80,119 91,208 4,30 6,106 6,230l-543 0 -150 0zm-418 -678l-78 25 0 671c0,85 -19,154 -58,207 -41,63 -102,94 -183,94 -65,0 -126,-13 -181,-39l33 76c45,21 94,31 148,31 104,0 183,-34 239,-104 53,-66 80,-155 80,-269l0 -692zm-755 678c3,-77 5,-167 5,-269 0,-243 -88,-364 -264,-364 -98,0 -170,36 -218,109 -43,64 -64,149 -64,255 0,97 23,176 71,236 53,66 125,100 217,102l170 0c-6,69 -28,125 -64,168 -39,47 -93,70 -163,70 -68,0 -127,-12 -175,-36l32 73c47,20 96,29 145,29 89,0 161,-29 214,-86 51,-53 80,-126 89,-218l215 0 4 0 20 0 0 -1c71,-4 128,-30 173,-75 49,-51 74,-117 74,-199l0 -472 -78 26 0 433c0,146 -67,219 -202,219l-201 0zm-68 -269c0,23 -1,62 -1,116l-2 153 -182 0c-71,0 -125,-27 -163,-81 -34,-49 -51,-111 -51,-188 0,-199 69,-299 208,-299 129,0 193,100 191,299zm-1558 269c-134,-2 -200,-75 -200,-219l0 -459 -298 0c-75,0 -135,22 -179,66 -64,64 -96,164 -96,302 0,253 92,379 275,379 123,0 205,-47 246,-142 45,95 126,142 244,142l74 0 0 0 599 0c181,0 271,-92 271,-275l0 -472 -78 26 0 433c0,146 -68,219 -203,219l-132 0 0 -597 -77 24 0 573 -260 0 0 -521 -77 26 0 495 -44 0 -61 0 -4 0zm-279 -310c0,206 -69,310 -207,310 -140,0 -210,-104 -210,-310 0,-206 70,-309 210,-309l207 0 0 309zm4408 -298c-2,0 -5,0 -6,0l25 -74 241 0c2,0 4,0 6,1l-32 73 -234 0zm-3670 -429l-17 -9c-11,-5 -23,-9 -34,-12 -13,-4 -26,-7 -39,-9 -13,-2 -26,-3 -38,-3 -12,0 -23,0 -33,2 -11,1 -22,3 -33,6 -11,3 -22,7 -32,11l-16 7 17 59 27 -8c12,-3 24,-6 35,-7 12,-2 24,-3 35,-3 13,0 27,2 40,4 14,2 27,5 40,9l32 11 16 -58zm216 208c-22,-12 -43,-23 -65,-33 -29,-13 -59,-24 -88,-33 -33,-10 -67,-18 -101,-23 -34,-5 -67,-8 -100,-8 -29,0 -58,2 -87,6 -29,4 -58,9 -87,17 -28,7 -56,17 -83,28 -20,8 -40,17 -60,27l46 66c15,-7 29,-13 44,-18 20,-8 41,-15 62,-20 27,-7 55,-13 82,-16 28,-4 55,-6 83,-6 32,0 64,3 96,8 32,4 63,12 94,21 23,7 46,16 69,25 17,7 33,15 49,24l46 -65zm1073 1607l13 -6 -13 -48 -26 10c-11,3 -24,6 -35,8 -12,2 -25,3 -37,3 -10,0 -20,-1 -31,-2 -10,-2 -21,-4 -31,-7l-22 -6 -14 48 12 5c9,4 18,7 28,9 10,3 20,5 29,6 9,1 19,2 29,2 11,0 23,-1 34,-3 11,-1 23,-4 34,-7 10,-3 20,-7 30,-12zm131 -164c20,-9 40,-19 59,-30l-22 -56 -42 19c-28,11 -58,21 -81,28 -28,9 -56,15 -84,19 -28,5 -57,7 -86,7 -24,0 -49,-2 -73,-5 -25,-3 -49,-8 -73,-14 -19,-5 -38,-11 -56,-18l-37 -15 -39 54c17,9 34,16 51,23 24,10 49,18 74,24 25,7 51,12 77,16 25,3 51,5 76,5 30,0 60,-3 89,-7 30,-5 59,-12 89,-21 26,-8 52,-18 78,-29zm4027 -899c0,190 -68,285 -202,285 -135,0 -203,-95 -203,-285 0,-192 68,-288 203,-288 134,0 202,96 202,288z"/>
 </g>
</svg>
