<?xml version="1.0" encoding="UTF-8"?>
<!DOCTYPE svg PUBLIC "-//W3C//DTD SVG 1.1//EN" "http://www.w3.org/Graphics/SVG/1.1/DTD/svg11.dtd">
<!-- Creator: CorelDRAW X8 -->
<svg xmlns="http://www.w3.org/2000/svg" xml:space="preserve" width="1.66667in" height="3.14676in" version="1.1" style="shape-rendering:geometricPrecision; text-rendering:geometricPrecision; image-rendering:optimizeQuality; fill-rule:evenodd; clip-rule:evenodd"
viewBox="0 0 1618 3055"
 xmlns:xlink="http://www.w3.org/1999/xlink">
 <defs>
  <style type="text/css">
   <![CDATA[
    .fil0 {fill:#FEFEFE}
    .fil2 {fill:#1E87F0}
    .fil1 {fill:#E3E3E3}
    .fil3 {fill:#BDBFC1;fill-rule:nonzero}
   ]]>
  </style>
 </defs>
 <g id="Layer_x0020_1">
  <metadata id="CorelCorpID_0Corel-Layer"/>
  <path class="fil0" d="M253 0l1102 0c134,0 244,110 244,244l0 371 9 0c6,0 10,5 10,10l0 221c0,5 -4,10 -10,10l-9 0 0 2199 -93 0 0 -2840 -1401 0 0 2840 -96 0 0 -1897 -3 0c-3,0 -6,-3 -6,-6l0 -229c0,-3 3,-5 6,-5l3 0 0 -62 -3 0c-3,0 -6,-2 -6,-5l0 -229c0,-3 3,-6 6,-6l3 0 0 -155 -3 0c-3,0 -6,-3 -6,-6l0 -118c0,-3 3,-6 6,-6l3 0 0 -87c0,-134 110,-244 244,-244zm433 111l239 0c9,0 16,8 16,17l0 0c0,9 -7,16 -16,16l-239 0c-9,0 -17,-7 -17,-16l0 0c0,-9 8,-17 17,-17zm125 -73c10,0 19,8 19,18 0,11 -9,19 -19,19 -10,0 -19,-8 -19,-19 0,-10 9,-18 19,-18zm-259 64c16,0 29,13 29,29 0,16 -13,29 -29,29 -16,0 -28,-13 -28,-29 0,-16 12,-29 28,-29z"/>
  <path class="fil1" d="M96 326l1419 0 0 19 -6 0 4 210c-332,104 -996,127 -1408,-1l-4 -209 -5 0 0 -19z"/>
  <path class="fil2" d="M1510 221l0 177c-331,104 -992,126 -1405,1l0 -178 1405 0z"/>
  <path class="fil3" d="M96 3055l0 -2840 1419 0 0 2840 -12 0 0 -2829 -1395 0 0 2829 -12 0z"/>
 </g>
</svg>
